<mxfile host="app.diagrams.net" modified="2023-09-26T04:20:17.747Z" agent="Mozilla/5.0 (Windows NT 10.0; Win64; x64) AppleWebKit/537.36 (KHTML, like Gecko) Chrome/117.0.0.0 Safari/537.36 Edg/117.0.2045.41" etag="jJPAEWqc0nF95BYcQyye" version="21.8.2" type="device">
  <diagram name="Page-1" id="RIZCi0_Y6E4zNr2SQtIL">
    <mxGraphModel dx="1386" dy="1893" grid="1" gridSize="10" guides="1" tooltips="1" connect="1" arrows="1" fold="1" page="1" pageScale="1" pageWidth="850" pageHeight="1100" math="0" shadow="0">
      <root>
        <mxCell id="0" />
        <mxCell id="1" parent="0" />
        <mxCell id="vP8TKwMheVow43DuTM-l-1" value="Loại xe" style="whiteSpace=wrap;html=1;align=center;" vertex="1" parent="1">
          <mxGeometry x="240" y="20" width="100" height="40" as="geometry" />
        </mxCell>
        <mxCell id="vP8TKwMheVow43DuTM-l-2" value="Xe" style="whiteSpace=wrap;html=1;align=center;" vertex="1" parent="1">
          <mxGeometry x="540" y="120" width="100" height="40" as="geometry" />
        </mxCell>
        <mxCell id="vP8TKwMheVow43DuTM-l-3" value="Khách hàng" style="whiteSpace=wrap;html=1;align=center;" vertex="1" parent="1">
          <mxGeometry x="450" y="350" width="100" height="40" as="geometry" />
        </mxCell>
        <mxCell id="vP8TKwMheVow43DuTM-l-4" value="Phiếu cho thuê" style="whiteSpace=wrap;html=1;align=center;" vertex="1" parent="1">
          <mxGeometry x="880" y="240" width="100" height="40" as="geometry" />
        </mxCell>
        <mxCell id="vP8TKwMheVow43DuTM-l-5" value="Nhân Viên" style="whiteSpace=wrap;html=1;align=center;" vertex="1" parent="1">
          <mxGeometry x="880" y="-40" width="100" height="40" as="geometry" />
        </mxCell>
        <mxCell id="vP8TKwMheVow43DuTM-l-6" value="có" style="shape=rhombus;perimeter=rhombusPerimeter;whiteSpace=wrap;html=1;align=center;" vertex="1" parent="1">
          <mxGeometry x="340" y="130" width="70" height="40" as="geometry" />
        </mxCell>
        <mxCell id="vP8TKwMheVow43DuTM-l-7" value="Phiếu nộp phạt" style="whiteSpace=wrap;html=1;align=center;" vertex="1" parent="1">
          <mxGeometry x="900" y="435" width="100" height="40" as="geometry" />
        </mxCell>
        <mxCell id="vP8TKwMheVow43DuTM-l-15" value="" style="endArrow=none;html=1;rounded=0;exitX=1;exitY=0.5;exitDx=0;exitDy=0;entryX=0;entryY=0.75;entryDx=0;entryDy=0;" edge="1" parent="1" source="vP8TKwMheVow43DuTM-l-6" target="vP8TKwMheVow43DuTM-l-2">
          <mxGeometry relative="1" as="geometry">
            <mxPoint x="490" y="290" as="sourcePoint" />
            <mxPoint x="650" y="290" as="targetPoint" />
          </mxGeometry>
        </mxCell>
        <mxCell id="vP8TKwMheVow43DuTM-l-16" value="N" style="resizable=0;html=1;whiteSpace=wrap;align=right;verticalAlign=bottom;" connectable="0" vertex="1" parent="vP8TKwMheVow43DuTM-l-15">
          <mxGeometry x="1" relative="1" as="geometry" />
        </mxCell>
        <mxCell id="vP8TKwMheVow43DuTM-l-17" value="" style="endArrow=none;html=1;rounded=0;entryX=0.43;entryY=1.025;entryDx=0;entryDy=0;exitX=0;exitY=0.5;exitDx=0;exitDy=0;entryPerimeter=0;" edge="1" parent="1" source="vP8TKwMheVow43DuTM-l-6" target="vP8TKwMheVow43DuTM-l-1">
          <mxGeometry relative="1" as="geometry">
            <mxPoint x="490" y="290" as="sourcePoint" />
            <mxPoint x="650" y="290" as="targetPoint" />
          </mxGeometry>
        </mxCell>
        <mxCell id="vP8TKwMheVow43DuTM-l-18" value="1" style="resizable=0;html=1;whiteSpace=wrap;align=right;verticalAlign=bottom;" connectable="0" vertex="1" parent="vP8TKwMheVow43DuTM-l-17">
          <mxGeometry x="1" relative="1" as="geometry" />
        </mxCell>
        <mxCell id="vP8TKwMheVow43DuTM-l-19" value="có" style="shape=rhombus;perimeter=rhombusPerimeter;whiteSpace=wrap;html=1;align=center;" vertex="1" parent="1">
          <mxGeometry x="700" y="310" width="70" height="40" as="geometry" />
        </mxCell>
        <mxCell id="vP8TKwMheVow43DuTM-l-20" value="có" style="shape=rhombus;perimeter=rhombusPerimeter;whiteSpace=wrap;html=1;align=center;" vertex="1" parent="1">
          <mxGeometry x="710" y="170" width="70" height="40" as="geometry" />
        </mxCell>
        <mxCell id="vP8TKwMheVow43DuTM-l-25" value="" style="endArrow=none;html=1;rounded=0;entryX=1;entryY=0;entryDx=0;entryDy=0;exitX=0;exitY=0.5;exitDx=0;exitDy=0;" edge="1" parent="1" source="vP8TKwMheVow43DuTM-l-19" target="vP8TKwMheVow43DuTM-l-3">
          <mxGeometry relative="1" as="geometry">
            <mxPoint x="490" y="290" as="sourcePoint" />
            <mxPoint x="650" y="290" as="targetPoint" />
          </mxGeometry>
        </mxCell>
        <mxCell id="vP8TKwMheVow43DuTM-l-26" value="1" style="resizable=0;html=1;whiteSpace=wrap;align=right;verticalAlign=bottom;" connectable="0" vertex="1" parent="vP8TKwMheVow43DuTM-l-25">
          <mxGeometry x="1" relative="1" as="geometry" />
        </mxCell>
        <mxCell id="vP8TKwMheVow43DuTM-l-27" value="" style="shape=link;html=1;rounded=0;exitX=1;exitY=0.5;exitDx=0;exitDy=0;width=-4;entryX=0;entryY=0.5;entryDx=0;entryDy=0;" edge="1" parent="1" source="vP8TKwMheVow43DuTM-l-20" target="vP8TKwMheVow43DuTM-l-4">
          <mxGeometry relative="1" as="geometry">
            <mxPoint x="490" y="290" as="sourcePoint" />
            <mxPoint x="690" y="240" as="targetPoint" />
          </mxGeometry>
        </mxCell>
        <mxCell id="vP8TKwMheVow43DuTM-l-28" value="1" style="resizable=0;html=1;whiteSpace=wrap;align=right;verticalAlign=bottom;" connectable="0" vertex="1" parent="vP8TKwMheVow43DuTM-l-27">
          <mxGeometry x="1" relative="1" as="geometry" />
        </mxCell>
        <mxCell id="vP8TKwMheVow43DuTM-l-29" value="" style="shape=link;html=1;rounded=0;entryX=0;entryY=0.5;entryDx=0;entryDy=0;width=-4;exitX=1;exitY=0.5;exitDx=0;exitDy=0;" edge="1" parent="1" source="vP8TKwMheVow43DuTM-l-31" target="vP8TKwMheVow43DuTM-l-7">
          <mxGeometry relative="1" as="geometry">
            <mxPoint x="750" y="450" as="sourcePoint" />
            <mxPoint x="940" y="290" as="targetPoint" />
          </mxGeometry>
        </mxCell>
        <mxCell id="vP8TKwMheVow43DuTM-l-30" value="1" style="resizable=0;html=1;whiteSpace=wrap;align=right;verticalAlign=bottom;" connectable="0" vertex="1" parent="vP8TKwMheVow43DuTM-l-29">
          <mxGeometry x="1" relative="1" as="geometry" />
        </mxCell>
        <mxCell id="vP8TKwMheVow43DuTM-l-31" value="có" style="shape=rhombus;perimeter=rhombusPerimeter;whiteSpace=wrap;html=1;align=center;" vertex="1" parent="1">
          <mxGeometry x="700" y="430" width="70" height="50" as="geometry" />
        </mxCell>
        <mxCell id="vP8TKwMheVow43DuTM-l-33" value="" style="endArrow=none;html=1;rounded=0;entryX=1;entryY=1;entryDx=0;entryDy=0;exitX=0;exitY=0.5;exitDx=0;exitDy=0;" edge="1" parent="1" source="vP8TKwMheVow43DuTM-l-31" target="vP8TKwMheVow43DuTM-l-3">
          <mxGeometry relative="1" as="geometry">
            <mxPoint x="710" y="340" as="sourcePoint" />
            <mxPoint x="560" y="380" as="targetPoint" />
          </mxGeometry>
        </mxCell>
        <mxCell id="vP8TKwMheVow43DuTM-l-34" value="1" style="resizable=0;html=1;whiteSpace=wrap;align=right;verticalAlign=bottom;" connectable="0" vertex="1" parent="vP8TKwMheVow43DuTM-l-33">
          <mxGeometry x="1" relative="1" as="geometry" />
        </mxCell>
        <mxCell id="vP8TKwMheVow43DuTM-l-35" value="thu tiền&lt;br&gt;" style="shape=rhombus;perimeter=rhombusPerimeter;whiteSpace=wrap;html=1;align=center;" vertex="1" parent="1">
          <mxGeometry x="895" y="120" width="70" height="40" as="geometry" />
        </mxCell>
        <mxCell id="vP8TKwMheVow43DuTM-l-36" value="Cung cấp &lt;br&gt;thông tin" style="shape=rhombus;perimeter=rhombusPerimeter;whiteSpace=wrap;html=1;align=center;" vertex="1" parent="1">
          <mxGeometry x="550" y="-50" width="80" height="60" as="geometry" />
        </mxCell>
        <mxCell id="vP8TKwMheVow43DuTM-l-38" value="" style="endArrow=none;html=1;rounded=0;entryX=0.5;entryY=1;entryDx=0;entryDy=0;exitX=0.5;exitY=0;exitDx=0;exitDy=0;" edge="1" parent="1" source="vP8TKwMheVow43DuTM-l-35" target="vP8TKwMheVow43DuTM-l-5">
          <mxGeometry relative="1" as="geometry">
            <mxPoint x="710" y="340" as="sourcePoint" />
            <mxPoint x="560" y="360" as="targetPoint" />
          </mxGeometry>
        </mxCell>
        <mxCell id="vP8TKwMheVow43DuTM-l-39" value="1" style="resizable=0;html=1;whiteSpace=wrap;align=right;verticalAlign=bottom;" connectable="0" vertex="1" parent="vP8TKwMheVow43DuTM-l-38">
          <mxGeometry x="1" relative="1" as="geometry" />
        </mxCell>
        <mxCell id="vP8TKwMheVow43DuTM-l-42" value="" style="endArrow=none;html=1;rounded=0;entryX=1;entryY=0.5;entryDx=0;entryDy=0;exitX=0;exitY=0.5;exitDx=0;exitDy=0;" edge="1" parent="1" source="vP8TKwMheVow43DuTM-l-20" target="vP8TKwMheVow43DuTM-l-2">
          <mxGeometry relative="1" as="geometry">
            <mxPoint x="710" y="340" as="sourcePoint" />
            <mxPoint x="560" y="360" as="targetPoint" />
          </mxGeometry>
        </mxCell>
        <mxCell id="vP8TKwMheVow43DuTM-l-43" value="1" style="resizable=0;html=1;whiteSpace=wrap;align=right;verticalAlign=bottom;" connectable="0" vertex="1" parent="vP8TKwMheVow43DuTM-l-42">
          <mxGeometry x="1" relative="1" as="geometry" />
        </mxCell>
        <mxCell id="vP8TKwMheVow43DuTM-l-44" value="" style="endArrow=none;html=1;rounded=0;exitX=1;exitY=0.5;exitDx=0;exitDy=0;entryX=0.5;entryY=1;entryDx=0;entryDy=0;" edge="1" parent="1" source="vP8TKwMheVow43DuTM-l-19" target="vP8TKwMheVow43DuTM-l-4">
          <mxGeometry relative="1" as="geometry">
            <mxPoint x="940" y="130" as="sourcePoint" />
            <mxPoint x="940" y="30" as="targetPoint" />
          </mxGeometry>
        </mxCell>
        <mxCell id="vP8TKwMheVow43DuTM-l-45" value="N" style="resizable=0;html=1;whiteSpace=wrap;align=right;verticalAlign=bottom;" connectable="0" vertex="1" parent="vP8TKwMheVow43DuTM-l-44">
          <mxGeometry x="1" relative="1" as="geometry" />
        </mxCell>
        <mxCell id="vP8TKwMheVow43DuTM-l-46" value="max = 2&lt;br&gt;" style="edgeLabel;html=1;align=center;verticalAlign=middle;resizable=0;points=[];" vertex="1" connectable="0" parent="vP8TKwMheVow43DuTM-l-44">
          <mxGeometry x="-0.1502" y="-3" relative="1" as="geometry">
            <mxPoint as="offset" />
          </mxGeometry>
        </mxCell>
        <mxCell id="vP8TKwMheVow43DuTM-l-47" value="" style="endArrow=none;html=1;rounded=0;exitX=0.75;exitY=0;exitDx=0;exitDy=0;entryX=0;entryY=0.5;entryDx=0;entryDy=0;" edge="1" parent="1" source="vP8TKwMheVow43DuTM-l-1" target="vP8TKwMheVow43DuTM-l-36">
          <mxGeometry relative="1" as="geometry">
            <mxPoint x="490" y="290" as="sourcePoint" />
            <mxPoint x="650" y="290" as="targetPoint" />
          </mxGeometry>
        </mxCell>
        <mxCell id="vP8TKwMheVow43DuTM-l-48" value="" style="endArrow=none;html=1;rounded=0;exitX=1;exitY=0.5;exitDx=0;exitDy=0;entryX=0;entryY=0.5;entryDx=0;entryDy=0;" edge="1" parent="1" source="vP8TKwMheVow43DuTM-l-36" target="vP8TKwMheVow43DuTM-l-5">
          <mxGeometry relative="1" as="geometry">
            <mxPoint x="350" y="50" as="sourcePoint" />
            <mxPoint x="560" y="40" as="targetPoint" />
          </mxGeometry>
        </mxCell>
        <mxCell id="vP8TKwMheVow43DuTM-l-49" value="" style="endArrow=none;html=1;rounded=0;exitX=0.5;exitY=1;exitDx=0;exitDy=0;entryX=0.5;entryY=0;entryDx=0;entryDy=0;" edge="1" parent="1" source="vP8TKwMheVow43DuTM-l-36" target="vP8TKwMheVow43DuTM-l-2">
          <mxGeometry relative="1" as="geometry">
            <mxPoint x="640" y="40" as="sourcePoint" />
            <mxPoint x="890" y="-10" as="targetPoint" />
          </mxGeometry>
        </mxCell>
        <mxCell id="vP8TKwMheVow43DuTM-l-50" value="Mã xe" style="ellipse;whiteSpace=wrap;html=1;align=center;fontStyle=4;" vertex="1" parent="1">
          <mxGeometry x="80" y="-80" width="100" height="40" as="geometry" />
        </mxCell>
        <mxCell id="vP8TKwMheVow43DuTM-l-51" value="Tên loại" style="ellipse;whiteSpace=wrap;html=1;align=center;" vertex="1" parent="1">
          <mxGeometry x="80" y="-10" width="100" height="40" as="geometry" />
        </mxCell>
        <mxCell id="vP8TKwMheVow43DuTM-l-52" value="Hãng sản xuất" style="ellipse;whiteSpace=wrap;html=1;align=center;" vertex="1" parent="1">
          <mxGeometry x="80" y="60" width="100" height="40" as="geometry" />
        </mxCell>
        <mxCell id="vP8TKwMheVow43DuTM-l-53" value="Năm sản xuất" style="ellipse;whiteSpace=wrap;html=1;align=center;" vertex="1" parent="1">
          <mxGeometry x="80" y="130" width="100" height="40" as="geometry" />
        </mxCell>
        <mxCell id="vP8TKwMheVow43DuTM-l-54" value="Mô tả khác" style="ellipse;shape=doubleEllipse;margin=3;whiteSpace=wrap;html=1;align=center;" vertex="1" parent="1">
          <mxGeometry x="80" y="200" width="100" height="40" as="geometry" />
        </mxCell>
        <mxCell id="vP8TKwMheVow43DuTM-l-55" value="" style="endArrow=none;html=1;rounded=0;exitX=1;exitY=0.5;exitDx=0;exitDy=0;entryX=0;entryY=0.5;entryDx=0;entryDy=0;" edge="1" parent="1" source="vP8TKwMheVow43DuTM-l-50" target="vP8TKwMheVow43DuTM-l-1">
          <mxGeometry relative="1" as="geometry">
            <mxPoint x="490" y="290" as="sourcePoint" />
            <mxPoint x="650" y="290" as="targetPoint" />
          </mxGeometry>
        </mxCell>
        <mxCell id="vP8TKwMheVow43DuTM-l-56" value="" style="endArrow=none;html=1;rounded=0;exitX=1;exitY=0.5;exitDx=0;exitDy=0;entryX=0;entryY=0.5;entryDx=0;entryDy=0;" edge="1" parent="1" source="vP8TKwMheVow43DuTM-l-51" target="vP8TKwMheVow43DuTM-l-1">
          <mxGeometry relative="1" as="geometry">
            <mxPoint x="190" y="-50" as="sourcePoint" />
            <mxPoint x="250" y="50" as="targetPoint" />
          </mxGeometry>
        </mxCell>
        <mxCell id="vP8TKwMheVow43DuTM-l-57" value="" style="endArrow=none;html=1;rounded=0;exitX=1;exitY=0.5;exitDx=0;exitDy=0;entryX=0;entryY=0.5;entryDx=0;entryDy=0;" edge="1" parent="1" source="vP8TKwMheVow43DuTM-l-52" target="vP8TKwMheVow43DuTM-l-1">
          <mxGeometry relative="1" as="geometry">
            <mxPoint x="190" y="20" as="sourcePoint" />
            <mxPoint x="250" y="50" as="targetPoint" />
          </mxGeometry>
        </mxCell>
        <mxCell id="vP8TKwMheVow43DuTM-l-58" value="" style="endArrow=none;html=1;rounded=0;exitX=1;exitY=0.5;exitDx=0;exitDy=0;entryX=0;entryY=0.5;entryDx=0;entryDy=0;" edge="1" parent="1" source="vP8TKwMheVow43DuTM-l-53" target="vP8TKwMheVow43DuTM-l-1">
          <mxGeometry relative="1" as="geometry">
            <mxPoint x="190" y="90" as="sourcePoint" />
            <mxPoint x="250" y="50" as="targetPoint" />
          </mxGeometry>
        </mxCell>
        <mxCell id="vP8TKwMheVow43DuTM-l-59" value="" style="endArrow=none;html=1;rounded=0;exitX=1.01;exitY=0.35;exitDx=0;exitDy=0;entryX=0;entryY=0.5;entryDx=0;entryDy=0;exitPerimeter=0;" edge="1" parent="1" source="vP8TKwMheVow43DuTM-l-54" target="vP8TKwMheVow43DuTM-l-1">
          <mxGeometry relative="1" as="geometry">
            <mxPoint x="190" y="160" as="sourcePoint" />
            <mxPoint x="250" y="50" as="targetPoint" />
          </mxGeometry>
        </mxCell>
        <mxCell id="vP8TKwMheVow43DuTM-l-60" value="Biển số xe" style="ellipse;whiteSpace=wrap;html=1;align=center;fontStyle=4;" vertex="1" parent="1">
          <mxGeometry x="390" y="190" width="100" height="40" as="geometry" />
        </mxCell>
        <mxCell id="vP8TKwMheVow43DuTM-l-61" value="Màu sơn" style="ellipse;whiteSpace=wrap;html=1;align=center;" vertex="1" parent="1">
          <mxGeometry x="450" y="230" width="100" height="40" as="geometry" />
        </mxCell>
        <mxCell id="vP8TKwMheVow43DuTM-l-62" value="" style="endArrow=none;html=1;rounded=0;exitX=0.5;exitY=1;exitDx=0;exitDy=0;entryX=0.5;entryY=0;entryDx=0;entryDy=0;" edge="1" parent="1" source="vP8TKwMheVow43DuTM-l-35" target="vP8TKwMheVow43DuTM-l-4">
          <mxGeometry relative="1" as="geometry">
            <mxPoint x="420" y="160" as="sourcePoint" />
            <mxPoint x="550" y="160" as="targetPoint" />
          </mxGeometry>
        </mxCell>
        <mxCell id="vP8TKwMheVow43DuTM-l-63" value="N" style="resizable=0;html=1;whiteSpace=wrap;align=right;verticalAlign=bottom;" connectable="0" vertex="1" parent="vP8TKwMheVow43DuTM-l-62">
          <mxGeometry x="1" relative="1" as="geometry" />
        </mxCell>
        <mxCell id="vP8TKwMheVow43DuTM-l-64" value="Tình trạng" style="ellipse;whiteSpace=wrap;html=1;align=center;" vertex="1" parent="1">
          <mxGeometry x="540" y="200" width="100" height="40" as="geometry" />
        </mxCell>
        <mxCell id="vP8TKwMheVow43DuTM-l-65" value="Mô tả khác" style="ellipse;shape=doubleEllipse;margin=3;whiteSpace=wrap;html=1;align=center;" vertex="1" parent="1">
          <mxGeometry x="640" y="240" width="100" height="40" as="geometry" />
        </mxCell>
        <mxCell id="vP8TKwMheVow43DuTM-l-66" value="" style="endArrow=none;html=1;rounded=0;exitX=0.5;exitY=1;exitDx=0;exitDy=0;entryX=0.5;entryY=0;entryDx=0;entryDy=0;" edge="1" parent="1" source="vP8TKwMheVow43DuTM-l-2" target="vP8TKwMheVow43DuTM-l-60">
          <mxGeometry relative="1" as="geometry">
            <mxPoint x="190" y="-50" as="sourcePoint" />
            <mxPoint x="250" y="50" as="targetPoint" />
          </mxGeometry>
        </mxCell>
        <mxCell id="vP8TKwMheVow43DuTM-l-67" value="" style="endArrow=none;html=1;rounded=0;entryX=0.5;entryY=0;entryDx=0;entryDy=0;exitX=0.5;exitY=1;exitDx=0;exitDy=0;" edge="1" parent="1" source="vP8TKwMheVow43DuTM-l-2" target="vP8TKwMheVow43DuTM-l-61">
          <mxGeometry relative="1" as="geometry">
            <mxPoint x="590" y="160" as="sourcePoint" />
            <mxPoint x="450" y="200" as="targetPoint" />
          </mxGeometry>
        </mxCell>
        <mxCell id="vP8TKwMheVow43DuTM-l-69" value="" style="endArrow=none;html=1;rounded=0;entryX=0.5;entryY=0;entryDx=0;entryDy=0;exitX=0.5;exitY=1;exitDx=0;exitDy=0;" edge="1" parent="1" source="vP8TKwMheVow43DuTM-l-2" target="vP8TKwMheVow43DuTM-l-64">
          <mxGeometry relative="1" as="geometry">
            <mxPoint x="600" y="170" as="sourcePoint" />
            <mxPoint x="510" y="240" as="targetPoint" />
          </mxGeometry>
        </mxCell>
        <mxCell id="vP8TKwMheVow43DuTM-l-70" value="" style="endArrow=none;html=1;rounded=0;entryX=0.5;entryY=0;entryDx=0;entryDy=0;exitX=0.5;exitY=1;exitDx=0;exitDy=0;" edge="1" parent="1" source="vP8TKwMheVow43DuTM-l-2" target="vP8TKwMheVow43DuTM-l-65">
          <mxGeometry relative="1" as="geometry">
            <mxPoint x="600" y="170" as="sourcePoint" />
            <mxPoint x="600" y="210" as="targetPoint" />
          </mxGeometry>
        </mxCell>
        <mxCell id="vP8TKwMheVow43DuTM-l-71" value="Mã khách hàng" style="ellipse;whiteSpace=wrap;html=1;align=center;fontStyle=4;" vertex="1" parent="1">
          <mxGeometry x="250" y="300" width="100" height="40" as="geometry" />
        </mxCell>
        <mxCell id="vP8TKwMheVow43DuTM-l-72" value="" style="endArrow=none;html=1;rounded=0;exitX=1;exitY=0.5;exitDx=0;exitDy=0;entryX=0;entryY=0.5;entryDx=0;entryDy=0;" edge="1" parent="1" source="vP8TKwMheVow43DuTM-l-71" target="vP8TKwMheVow43DuTM-l-3">
          <mxGeometry relative="1" as="geometry">
            <mxPoint x="191" y="224" as="sourcePoint" />
            <mxPoint x="250" y="50" as="targetPoint" />
          </mxGeometry>
        </mxCell>
        <mxCell id="vP8TKwMheVow43DuTM-l-74" value="Họ tên" style="ellipse;whiteSpace=wrap;html=1;align=center;" vertex="1" parent="1">
          <mxGeometry x="250" y="350" width="100" height="40" as="geometry" />
        </mxCell>
        <mxCell id="vP8TKwMheVow43DuTM-l-75" value="Giới tính" style="ellipse;whiteSpace=wrap;html=1;align=center;" vertex="1" parent="1">
          <mxGeometry x="250" y="400" width="100" height="40" as="geometry" />
        </mxCell>
        <mxCell id="vP8TKwMheVow43DuTM-l-76" value="Điện thoại" style="ellipse;whiteSpace=wrap;html=1;align=center;" vertex="1" parent="1">
          <mxGeometry x="250" y="460" width="100" height="40" as="geometry" />
        </mxCell>
        <mxCell id="vP8TKwMheVow43DuTM-l-77" value="Địa chỉ" style="ellipse;whiteSpace=wrap;html=1;align=center;" vertex="1" parent="1">
          <mxGeometry x="250" y="520" width="100" height="40" as="geometry" />
        </mxCell>
        <mxCell id="vP8TKwMheVow43DuTM-l-78" value="Các đặc điểm khác" style="ellipse;whiteSpace=wrap;html=1;align=center;" vertex="1" parent="1">
          <mxGeometry x="210" y="580" width="140" height="40" as="geometry" />
        </mxCell>
        <mxCell id="vP8TKwMheVow43DuTM-l-79" value="" style="endArrow=none;html=1;rounded=0;exitX=1;exitY=0.5;exitDx=0;exitDy=0;entryX=0;entryY=0.5;entryDx=0;entryDy=0;" edge="1" parent="1" source="vP8TKwMheVow43DuTM-l-74" target="vP8TKwMheVow43DuTM-l-3">
          <mxGeometry relative="1" as="geometry">
            <mxPoint x="360" y="330" as="sourcePoint" />
            <mxPoint x="460" y="380" as="targetPoint" />
          </mxGeometry>
        </mxCell>
        <mxCell id="vP8TKwMheVow43DuTM-l-80" value="" style="endArrow=none;html=1;rounded=0;exitX=1;exitY=0.5;exitDx=0;exitDy=0;entryX=0;entryY=0.5;entryDx=0;entryDy=0;" edge="1" parent="1" source="vP8TKwMheVow43DuTM-l-75" target="vP8TKwMheVow43DuTM-l-3">
          <mxGeometry relative="1" as="geometry">
            <mxPoint x="360" y="380" as="sourcePoint" />
            <mxPoint x="460" y="380" as="targetPoint" />
          </mxGeometry>
        </mxCell>
        <mxCell id="vP8TKwMheVow43DuTM-l-81" value="" style="endArrow=none;html=1;rounded=0;exitX=1;exitY=0.5;exitDx=0;exitDy=0;entryX=0;entryY=0.75;entryDx=0;entryDy=0;" edge="1" parent="1" source="vP8TKwMheVow43DuTM-l-76" target="vP8TKwMheVow43DuTM-l-3">
          <mxGeometry relative="1" as="geometry">
            <mxPoint x="360" y="430" as="sourcePoint" />
            <mxPoint x="460" y="380" as="targetPoint" />
          </mxGeometry>
        </mxCell>
        <mxCell id="vP8TKwMheVow43DuTM-l-82" value="" style="endArrow=none;html=1;rounded=0;exitX=1;exitY=0.5;exitDx=0;exitDy=0;entryX=0;entryY=0.75;entryDx=0;entryDy=0;" edge="1" parent="1" source="vP8TKwMheVow43DuTM-l-77" target="vP8TKwMheVow43DuTM-l-3">
          <mxGeometry relative="1" as="geometry">
            <mxPoint x="360" y="490" as="sourcePoint" />
            <mxPoint x="460" y="390" as="targetPoint" />
          </mxGeometry>
        </mxCell>
        <mxCell id="vP8TKwMheVow43DuTM-l-83" value="" style="endArrow=none;html=1;rounded=0;exitX=1;exitY=0.5;exitDx=0;exitDy=0;entryX=0;entryY=0.75;entryDx=0;entryDy=0;" edge="1" parent="1" source="vP8TKwMheVow43DuTM-l-78" target="vP8TKwMheVow43DuTM-l-3">
          <mxGeometry relative="1" as="geometry">
            <mxPoint x="360" y="550" as="sourcePoint" />
            <mxPoint x="460" y="390" as="targetPoint" />
          </mxGeometry>
        </mxCell>
        <mxCell id="vP8TKwMheVow43DuTM-l-84" value="Số phiếu thuê" style="ellipse;whiteSpace=wrap;html=1;align=center;fontStyle=4;" vertex="1" parent="1">
          <mxGeometry x="1080" y="90" width="100" height="40" as="geometry" />
        </mxCell>
        <mxCell id="vP8TKwMheVow43DuTM-l-85" value="Ngày thuê" style="ellipse;whiteSpace=wrap;html=1;align=center;" vertex="1" parent="1">
          <mxGeometry x="1080" y="170" width="100" height="40" as="geometry" />
        </mxCell>
        <mxCell id="vP8TKwMheVow43DuTM-l-86" value="CMNN / Hộ chiếu" style="ellipse;whiteSpace=wrap;html=1;align=center;" vertex="1" parent="1">
          <mxGeometry x="1080" y="230" width="100" height="40" as="geometry" />
        </mxCell>
        <mxCell id="vP8TKwMheVow43DuTM-l-95" value="Các thông tin khác" style="ellipse;shape=doubleEllipse;margin=3;whiteSpace=wrap;html=1;align=center;" vertex="1" parent="1">
          <mxGeometry x="1090" y="310" width="100" height="40" as="geometry" />
        </mxCell>
        <mxCell id="vP8TKwMheVow43DuTM-l-96" value="" style="endArrow=none;html=1;rounded=0;exitX=0;exitY=1;exitDx=0;exitDy=0;entryX=1;entryY=0.5;entryDx=0;entryDy=0;" edge="1" parent="1" source="vP8TKwMheVow43DuTM-l-84" target="vP8TKwMheVow43DuTM-l-4">
          <mxGeometry relative="1" as="geometry">
            <mxPoint x="360" y="330" as="sourcePoint" />
            <mxPoint x="460" y="380" as="targetPoint" />
          </mxGeometry>
        </mxCell>
        <mxCell id="vP8TKwMheVow43DuTM-l-97" value="" style="endArrow=none;html=1;rounded=0;exitX=0;exitY=1;exitDx=0;exitDy=0;" edge="1" parent="1" source="vP8TKwMheVow43DuTM-l-85">
          <mxGeometry relative="1" as="geometry">
            <mxPoint x="1105" y="134" as="sourcePoint" />
            <mxPoint x="980" y="260" as="targetPoint" />
          </mxGeometry>
        </mxCell>
        <mxCell id="vP8TKwMheVow43DuTM-l-98" value="" style="endArrow=none;html=1;rounded=0;exitX=0;exitY=1;exitDx=0;exitDy=0;entryX=1;entryY=0.75;entryDx=0;entryDy=0;" edge="1" parent="1" source="vP8TKwMheVow43DuTM-l-86" target="vP8TKwMheVow43DuTM-l-4">
          <mxGeometry relative="1" as="geometry">
            <mxPoint x="1105" y="214" as="sourcePoint" />
            <mxPoint x="990" y="260" as="targetPoint" />
          </mxGeometry>
        </mxCell>
        <mxCell id="vP8TKwMheVow43DuTM-l-99" value="" style="endArrow=none;html=1;rounded=0;exitX=0.06;exitY=0.35;exitDx=0;exitDy=0;entryX=1;entryY=0.75;entryDx=0;entryDy=0;exitPerimeter=0;" edge="1" parent="1" source="vP8TKwMheVow43DuTM-l-95" target="vP8TKwMheVow43DuTM-l-4">
          <mxGeometry relative="1" as="geometry">
            <mxPoint x="1105" y="274" as="sourcePoint" />
            <mxPoint x="990" y="280" as="targetPoint" />
          </mxGeometry>
        </mxCell>
        <mxCell id="vP8TKwMheVow43DuTM-l-100" value="Số phiếu phạt" style="ellipse;whiteSpace=wrap;html=1;align=center;fontStyle=4;" vertex="1" parent="1">
          <mxGeometry x="1060" y="410" width="100" height="40" as="geometry" />
        </mxCell>
        <mxCell id="vP8TKwMheVow43DuTM-l-101" value="Ngày phạt" style="ellipse;whiteSpace=wrap;html=1;align=center;" vertex="1" parent="1">
          <mxGeometry x="1070" y="475" width="100" height="40" as="geometry" />
        </mxCell>
        <mxCell id="vP8TKwMheVow43DuTM-l-102" value="họ tên khách hàng" style="ellipse;whiteSpace=wrap;html=1;align=center;" vertex="1" parent="1">
          <mxGeometry x="1070" y="540" width="100" height="40" as="geometry" />
        </mxCell>
        <mxCell id="vP8TKwMheVow43DuTM-l-103" value="CMND / Hộ chiếu" style="ellipse;whiteSpace=wrap;html=1;align=center;" vertex="1" parent="1">
          <mxGeometry x="940" y="530" width="100" height="40" as="geometry" />
        </mxCell>
        <mxCell id="vP8TKwMheVow43DuTM-l-105" value="" style="endArrow=none;html=1;rounded=0;exitX=0.5;exitY=0;exitDx=0;exitDy=0;entryX=0.5;entryY=1;entryDx=0;entryDy=0;" edge="1" parent="1" source="vP8TKwMheVow43DuTM-l-111" target="vP8TKwMheVow43DuTM-l-7">
          <mxGeometry relative="1" as="geometry">
            <mxPoint x="895.3553390593274" y="535.8578643762689" as="sourcePoint" />
            <mxPoint x="990" y="270" as="targetPoint" />
          </mxGeometry>
        </mxCell>
        <mxCell id="vP8TKwMheVow43DuTM-l-106" value="" style="endArrow=none;html=1;rounded=0;exitX=0.5;exitY=0;exitDx=0;exitDy=0;entryX=0.5;entryY=1;entryDx=0;entryDy=0;" edge="1" parent="1" source="vP8TKwMheVow43DuTM-l-103" target="vP8TKwMheVow43DuTM-l-7">
          <mxGeometry relative="1" as="geometry">
            <mxPoint x="905" y="546" as="sourcePoint" />
            <mxPoint x="960" y="485" as="targetPoint" />
          </mxGeometry>
        </mxCell>
        <mxCell id="vP8TKwMheVow43DuTM-l-107" value="" style="endArrow=none;html=1;rounded=0;exitX=0;exitY=0;exitDx=0;exitDy=0;entryX=1;entryY=1;entryDx=0;entryDy=0;" edge="1" parent="1" source="vP8TKwMheVow43DuTM-l-102" target="vP8TKwMheVow43DuTM-l-7">
          <mxGeometry relative="1" as="geometry">
            <mxPoint x="1000" y="540" as="sourcePoint" />
            <mxPoint x="960" y="485" as="targetPoint" />
          </mxGeometry>
        </mxCell>
        <mxCell id="vP8TKwMheVow43DuTM-l-108" value="" style="endArrow=none;html=1;rounded=0;exitX=0;exitY=0.5;exitDx=0;exitDy=0;entryX=1;entryY=0.5;entryDx=0;entryDy=0;" edge="1" parent="1" source="vP8TKwMheVow43DuTM-l-101" target="vP8TKwMheVow43DuTM-l-7">
          <mxGeometry relative="1" as="geometry">
            <mxPoint x="1095" y="556" as="sourcePoint" />
            <mxPoint x="1010" y="485" as="targetPoint" />
          </mxGeometry>
        </mxCell>
        <mxCell id="vP8TKwMheVow43DuTM-l-109" value="" style="endArrow=none;html=1;rounded=0;exitX=0;exitY=1;exitDx=0;exitDy=0;entryX=1;entryY=0.5;entryDx=0;entryDy=0;" edge="1" parent="1" source="vP8TKwMheVow43DuTM-l-100" target="vP8TKwMheVow43DuTM-l-7">
          <mxGeometry relative="1" as="geometry">
            <mxPoint x="1080" y="505" as="sourcePoint" />
            <mxPoint x="1010" y="465" as="targetPoint" />
          </mxGeometry>
        </mxCell>
        <mxCell id="vP8TKwMheVow43DuTM-l-111" value="Khoản nộp phạt" style="ellipse;shape=doubleEllipse;margin=3;whiteSpace=wrap;html=1;align=center;" vertex="1" parent="1">
          <mxGeometry x="820" y="530" width="100" height="40" as="geometry" />
        </mxCell>
        <mxCell id="vP8TKwMheVow43DuTM-l-112" value="Lý do nộp phạt" style="ellipse;whiteSpace=wrap;html=1;align=center;" vertex="1" parent="1">
          <mxGeometry x="685" y="600" width="100" height="40" as="geometry" />
        </mxCell>
        <mxCell id="vP8TKwMheVow43DuTM-l-113" value="Số tiền nộp phạt" style="ellipse;whiteSpace=wrap;html=1;align=center;" vertex="1" parent="1">
          <mxGeometry x="850" y="610" width="100" height="40" as="geometry" />
        </mxCell>
        <mxCell id="vP8TKwMheVow43DuTM-l-114" value="" style="endArrow=none;html=1;rounded=0;exitX=0.5;exitY=0;exitDx=0;exitDy=0;entryX=0;entryY=0.5;entryDx=0;entryDy=0;" edge="1" parent="1" source="vP8TKwMheVow43DuTM-l-112" target="vP8TKwMheVow43DuTM-l-111">
          <mxGeometry relative="1" as="geometry">
            <mxPoint x="1000" y="540" as="sourcePoint" />
            <mxPoint x="960" y="485" as="targetPoint" />
          </mxGeometry>
        </mxCell>
        <mxCell id="vP8TKwMheVow43DuTM-l-115" value="" style="endArrow=none;html=1;rounded=0;exitX=0;exitY=1;exitDx=0;exitDy=0;entryX=0;entryY=0;entryDx=0;entryDy=0;" edge="1" parent="1" source="vP8TKwMheVow43DuTM-l-111" target="vP8TKwMheVow43DuTM-l-113">
          <mxGeometry relative="1" as="geometry">
            <mxPoint x="755" y="580" as="sourcePoint" />
            <mxPoint x="830" y="560" as="targetPoint" />
          </mxGeometry>
        </mxCell>
        <mxCell id="vP8TKwMheVow43DuTM-l-117" value="Mã nhân viên" style="ellipse;whiteSpace=wrap;html=1;align=center;fontStyle=4;" vertex="1" parent="1">
          <mxGeometry x="770" y="-100" width="100" height="40" as="geometry" />
        </mxCell>
        <mxCell id="vP8TKwMheVow43DuTM-l-118" value="Tên nhân viên" style="ellipse;whiteSpace=wrap;html=1;align=center;" vertex="1" parent="1">
          <mxGeometry x="900" y="-110" width="100" height="40" as="geometry" />
        </mxCell>
        <mxCell id="vP8TKwMheVow43DuTM-l-119" value="Điện thoại" style="ellipse;whiteSpace=wrap;html=1;align=center;" vertex="1" parent="1">
          <mxGeometry x="1020" y="-90" width="100" height="40" as="geometry" />
        </mxCell>
        <mxCell id="vP8TKwMheVow43DuTM-l-120" value="Mô tả khác" style="ellipse;shape=doubleEllipse;margin=3;whiteSpace=wrap;html=1;align=center;" vertex="1" parent="1">
          <mxGeometry x="1040" width="100" height="40" as="geometry" />
        </mxCell>
        <mxCell id="vP8TKwMheVow43DuTM-l-121" value="" style="endArrow=none;html=1;rounded=0;exitX=0.62;exitY=1;exitDx=0;exitDy=0;entryX=0.25;entryY=0;entryDx=0;entryDy=0;exitPerimeter=0;" edge="1" parent="1" source="vP8TKwMheVow43DuTM-l-117" target="vP8TKwMheVow43DuTM-l-5">
          <mxGeometry relative="1" as="geometry">
            <mxPoint x="360" y="330" as="sourcePoint" />
            <mxPoint x="460" y="380" as="targetPoint" />
          </mxGeometry>
        </mxCell>
        <mxCell id="vP8TKwMheVow43DuTM-l-122" value="" style="endArrow=none;html=1;rounded=0;exitX=0.5;exitY=1;exitDx=0;exitDy=0;entryX=0.5;entryY=0;entryDx=0;entryDy=0;" edge="1" parent="1" source="vP8TKwMheVow43DuTM-l-118" target="vP8TKwMheVow43DuTM-l-5">
          <mxGeometry relative="1" as="geometry">
            <mxPoint x="842" y="-50" as="sourcePoint" />
            <mxPoint x="915" y="-30" as="targetPoint" />
          </mxGeometry>
        </mxCell>
        <mxCell id="vP8TKwMheVow43DuTM-l-123" value="" style="endArrow=none;html=1;rounded=0;exitX=0;exitY=1;exitDx=0;exitDy=0;entryX=0.5;entryY=0;entryDx=0;entryDy=0;" edge="1" parent="1" source="vP8TKwMheVow43DuTM-l-119" target="vP8TKwMheVow43DuTM-l-5">
          <mxGeometry relative="1" as="geometry">
            <mxPoint x="960" y="-60" as="sourcePoint" />
            <mxPoint x="940" y="-30" as="targetPoint" />
          </mxGeometry>
        </mxCell>
        <mxCell id="vP8TKwMheVow43DuTM-l-124" value="" style="endArrow=none;html=1;rounded=0;exitX=0;exitY=0;exitDx=0;exitDy=0;entryX=1;entryY=0.25;entryDx=0;entryDy=0;" edge="1" parent="1" source="vP8TKwMheVow43DuTM-l-120" target="vP8TKwMheVow43DuTM-l-5">
          <mxGeometry relative="1" as="geometry">
            <mxPoint x="1045" y="-46" as="sourcePoint" />
            <mxPoint x="940" y="-30" as="targetPoint" />
          </mxGeometry>
        </mxCell>
      </root>
    </mxGraphModel>
  </diagram>
</mxfile>
